<svg width="34" height="34" viewBox="0 0 34 34" fill="none" xmlns="http://www.w3.org/2000/svg">
<path d="M33.5 16.9999C33.5 17.6588 32.9589 18.1999 32.3 18.1999H30.6C29.9411 18.1999 29.4 17.6588 29.4 16.9999C29.4 16.3411 29.9411 15.7999 30.6 15.7999H32.3C32.9589 15.7999 33.5 16.3411 33.5 16.9999Z" fill="white" stroke="white"/>
<path d="M8.23145 27.4584L8.23144 27.4584L7.02451 28.6654L7.02439 28.6653L7.01557 28.6745C6.80079 28.9006 6.49745 29.0119 6.18805 29.0119C5.85891 29.0119 5.55665 28.8989 5.34351 28.6745L5.34363 28.6744L5.33457 28.6654C4.86683 28.1976 4.86683 27.4432 5.33456 26.9755C5.33456 26.9755 5.33457 26.9755 5.33457 26.9755L6.5416 25.7685L6.54161 25.7685C7.00934 25.3007 7.76372 25.3007 8.23145 25.7685C8.69919 26.2362 8.69919 26.9906 8.23145 27.4584Z" fill="white" stroke="white"/>
<path d="M4.6 16.9999C4.6 17.6588 4.05886 18.1999 3.4 18.1999H1.7C1.04114 18.1999 0.5 17.6588 0.5 16.9999C0.5 16.3411 1.04114 15.7999 1.7 15.7999H3.4C4.05886 15.7999 4.6 16.3411 4.6 16.9999Z" fill="white" stroke="white"/>
<path d="M6.55055 8.24052L6.55067 8.2404L6.5416 8.23133L5.33457 7.02434C5.33457 7.02434 5.33456 7.02434 5.33456 7.02434C4.86683 6.5566 4.86683 5.80218 5.33457 5.33445C5.8023 4.86671 6.55677 4.86671 7.02451 5.33444C7.02451 5.33444 7.02452 5.33444 7.02452 5.33445L8.23144 6.54144L8.23145 6.54145C8.69919 7.00918 8.69919 7.7636 8.23145 8.23134C7.99311 8.46968 7.69905 8.57789 7.37807 8.57789C7.06868 8.57789 6.76533 8.46661 6.55055 8.24052Z" fill="white" stroke="white"/>
<path d="M18.2 1.69994V3.39994C18.2 4.0588 17.6588 4.59994 17 4.59994C16.3411 4.59994 15.8 4.0588 15.8 3.39994V1.69994C15.8 1.04108 16.3411 0.499939 17 0.499939C17.6588 0.499939 18.2 1.04108 18.2 1.69994Z" fill="white" stroke="white"/>
<path d="M27.4585 8.23133L27.4584 8.23122L27.4495 8.24052C27.2347 8.46661 26.9314 8.57789 26.622 8.57789C26.301 8.57789 26.007 8.46968 25.7686 8.23134C25.3009 7.7636 25.3009 7.00918 25.7686 6.54145L25.7686 6.54144L26.9756 5.33445C27.4433 4.86671 28.1978 4.86671 28.6655 5.33445C29.1332 5.80218 29.1332 6.5566 28.6655 7.02434C28.6655 7.02434 28.6655 7.02434 28.6655 7.02434L27.4585 8.23133Z" fill="white" stroke="white"/>
<path d="M26.7 16.9999C26.7 18.0978 26.5184 19.1488 26.1843 20.1253C24.9812 19.4303 23.5721 19.0499 22.1 19.0499C18.0333 19.0499 14.6391 22.0744 14.0489 26.0123C13.933 26.0456 13.8205 26.0832 13.7109 26.1235C9.98267 24.7816 7.29999 21.2036 7.29999 16.9999C7.29999 11.6491 11.6491 7.29993 17 7.29993C22.3508 7.29993 26.7 11.6491 26.7 16.9999Z" fill="white" stroke="white"/>
<path d="M27.778 25.3809C27.7922 25.4375 27.8092 25.497 27.8268 25.5582C27.8515 25.6442 27.8771 25.7335 27.897 25.8229C27.948 26.0439 28.084 26.2309 28.271 26.3499L27.778 25.3809ZM27.778 25.3809L27.293 25.5022C27.2944 25.5077 27.2958 25.5133 27.2972 25.5189C27.2987 25.5236 27.3002 25.5283 27.3018 25.5331L27.778 25.3809ZM28.917 26.9519H28.9626C28.9634 26.9518 28.9643 26.9517 28.9651 26.9515C28.9905 26.9473 29.0207 26.94 29.0123 26.9419L29.007 26.9431C29.0052 26.9434 29.0027 26.9439 28.9995 26.9445C28.9973 26.9449 28.9948 26.9454 28.9921 26.9458C28.9811 26.9477 28.9534 26.9519 28.917 26.9519ZM28.7969 26.9545C28.8203 26.9577 28.8424 26.9591 28.8626 26.9594C28.8807 26.9566 28.8988 26.9534 28.917 26.9496C28.9381 26.9452 28.9593 26.9401 28.9805 26.9343L28.917 26.7015L28.8489 26.4519L28.4954 26.8055C28.5951 26.9052 28.7114 26.9429 28.7969 26.9545Z" fill="white" stroke="white"/>
</svg>
